<?xml version="1.0" encoding="UTF-8" standalone="no"?>
<!DOCTYPE svg PUBLIC "-//W3C//DTD SVG 1.1//EN" "http://www.w3.org/Graphics/SVG/1.1/DTD/svg11.dtd">
<svg width="100%" height="100%" viewBox="0 0 1633 1177" version="1.1" xmlns="http://www.w3.org/2000/svg" xmlns:xlink="http://www.w3.org/1999/xlink" xml:space="preserve" xmlns:serif="http://www.serif.com/" style="fill-rule:evenodd;clip-rule:evenodd;stroke-linejoin:round;stroke-miterlimit:2;">
    <g transform="matrix(1,0,0,1,-683.898,-96.753)">
        <g transform="matrix(1.62537,0,0,1.62537,-938.056,-428.242)">
            <g transform="matrix(0.435436,0,0,0.435436,861.759,323)">
                <path d="M1171.43,504.628L542.047,986.093L541.851,986.242C533.529,992.526 523.063,995.281 512.719,993.904C504.512,992.811 496.911,989.186 490.93,983.618L312.649,1109.87L481.156,970.841C477.346,963.611 475.836,955.326 476.929,947.118C478.318,936.693 483.79,927.247 492.143,920.857L509.483,907.593L509.483,907.349C551.9,874.341 1116.71,443.08 1116.71,443.08C1065.74,373.811 1034.5,289.808 1030.13,202.99C1029.69,194.225 1028.52,186.156 1029.79,176.762C1031.41,164.656 1043.17,155.207 1056.15,156.065C1056.91,156.116 1057.09,156.093 1058.54,156.297C1069.75,158.028 1078.88,168.231 1079,179.895C1078.92,264.262 1107.5,345.903 1156.55,412.606L1322.41,285.725C1290.53,239.707 1281.15,178.506 1298.59,125.128C1316.63,69.905 1362.91,24.72 1418.52,7.789C1443.48,0.19 1470.01,-1.832 1495.85,1.65C1540.89,7.863 1583.4,31.619 1612.19,67.023C1660.04,125.858 1666.52,215.051 1623.52,280.889C1622.49,282.465 1621.43,284.023 1620.35,285.562L1786.66,413.569C1791.88,406.52 1796.87,399.284 1801.6,391.872C1811.76,375.995 1825.33,373.302 1837.15,380.338C1849.19,387.5 1852.67,403.491 1844.99,415.739C1838.95,425.309 1832.54,434.626 1825.77,443.672L2445.01,920.297C2453.35,926.712 2458.79,936.174 2460.15,946.603C2461.28,955.315 2459.49,964.104 2455.13,971.62L2618.85,1107.52L2445.23,983.793C2439.36,988.929 2432.07,992.262 2424.22,993.283C2413.79,994.64 2403.25,991.799 2394.92,985.384L2390.07,981.653L2390.07,981.723C2337.92,942.328 1770.44,504.729 1770.44,504.729C1705.58,564.135 1623.21,604.497 1535.6,617.41C1422.55,634.073 1303.62,604.896 1211.2,537.496C1197.29,527.346 1184.01,516.359 1171.43,504.628ZM1134.42,465.606L715.483,786.082C712.868,788.082 711.154,791.04 710.72,794.304C710.285,797.568 711.165,800.871 713.166,803.486C713.166,803.486 713.166,803.486 713.166,803.486C715.166,806.102 718.124,807.815 721.388,808.25C724.652,808.685 727.955,807.805 730.57,805.804L1150.95,484.222C1145.27,478.173 1139.76,471.965 1134.42,465.606ZM1807.46,465.026C1802.08,471.351 1796.52,477.522 1790.79,483.532L2205.53,802.75C2208.14,804.759 2211.44,805.648 2214.7,805.223C2217.97,804.798 2220.93,803.094 2222.94,800.484C2222.94,800.484 2224.21,800.484 2224.21,800.484C2226.22,797.875 2225.84,794.575 2225.41,791.309C2224.99,788.044 2223.28,785.081 2220.67,783.073L1807.46,465.026ZM1055.53,175.967C1054.45,175.842 1055.63,175.019 1052.35,176.043C1050.02,176.772 1049.46,179.592 1049.47,182.338C1050.15,307.807 1109.84,431.979 1208.98,510.797C1322.31,600.897 1483.35,627.515 1622.2,574.264C1705.63,542.267 1777.89,483.827 1826.59,407.593C1827.11,406.778 1827.63,405.962 1828.14,405.144C1829.77,402.562 1830.27,399.452 1827.5,397.762C1821.67,394.206 1816.69,405.403 1811.09,413.581C1748.27,505.265 1647.46,569.561 1536.7,587.392C1431.68,604.301 1320.2,578.573 1233.28,517.028C1128.86,443.099 1062.03,319.739 1059.2,189.734C1059.15,187.73 1059.12,185.726 1059.11,183.722C1059.09,180.381 1058.91,176.57 1055.73,175.997C1055.67,175.986 1055.6,175.976 1055.53,175.967ZM1581.34,255.536C1587.2,246.843 1592.03,237.462 1595.66,227.619C1611.15,185.596 1603.48,135.907 1576.07,100.513C1555.1,73.433 1523.44,55.048 1489.21,50.322C1488.92,50.284 1488.64,50.246 1488.36,50.209C1430.23,42.754 1369.86,77.853 1348.08,132.658C1332.25,172.487 1338.36,219.407 1361.96,255.473L1391.84,232.614L1415.35,250.706L1174.33,435.078C1179.71,441.404 1185.29,447.566 1191.05,453.551L1435.72,266.386L1459.22,284.478L1211.89,473.68C1248.6,506.642 1291.59,532.889 1339.13,549.857C1425.71,580.759 1523.29,580.148 1609.94,547.368C1654.26,530.601 1695.35,505.685 1730.9,474.298L1398.21,218.228C1389.87,211.814 1384.43,202.351 1383.07,191.922C1381.71,181.493 1384.56,170.952 1390.97,162.618C1391.55,161.872 1392.12,161.125 1392.69,160.379C1399.11,152.044 1408.57,146.6 1419,145.243C1429.43,143.885 1439.97,146.727 1448.31,153.141L1581.34,255.536ZM1768.37,434.943L1515.6,240.383L1495.18,256.002L1751.59,453.36C1757.37,447.405 1762.97,441.263 1768.37,434.943ZM1604.83,273.617C1605.33,272.89 1605.83,272.157 1606.32,271.419C1634.1,229.744 1640.91,174.828 1624.14,127.605C1604.58,72.513 1554.26,30.039 1494.76,21.255C1493.89,21.13 1493.03,21.011 1492.16,20.897C1452.29,15.779 1410.73,26.03 1377.89,49.185C1322.33,88.368 1295.25,163.8 1316.85,231.088C1321.74,246.305 1329.01,260.643 1338.18,273.662L1346.33,267.427C1331.6,246.138 1322.04,221.238 1319.73,195.199C1315.19,144.022 1338.63,91.266 1379.59,60.31C1410.94,36.621 1451.62,25.771 1490.88,30.807C1491.2,30.849 1491.53,30.893 1491.85,30.936C1546.6,38.495 1595.59,78.066 1614.4,130.05C1630.74,175.188 1623.93,227.972 1596.9,267.512L1604.83,273.617ZM1484.45,161.769L1491.13,156.663C1499.48,150.273 1510.03,147.463 1520.45,148.852C1530.88,150.24 1540.33,155.713 1546.72,164.066C1547.29,164.814 1547.86,165.562 1548.43,166.31C1554.82,174.663 1557.63,185.213 1556.24,195.638C1555.45,201.628 1553.3,207.296 1550.03,212.246L1484.45,161.769Z"/>
            </g>
            <path d="M1279.98,630.321L1371.24,560.509C1374.43,563.157 1377.7,565.708 1381.06,568.154C1424.18,599.603 1479.67,613.221 1532.42,605.446C1569.42,599.992 1604.43,584.061 1633.17,560.526C1647.44,571.525 1677.38,594.608 1712.12,621.382L1712.12,636.065L1441.61,636.065L1441.61,719.019L1692.61,719.019L1692.61,825.47L1441.61,825.47L1441.61,928.361L1720.02,928.361L1720.02,1046.56L1279.98,1046.56L1279.98,630.321ZM1586.55,524.629L1593.13,529.697C1582.25,537.419 1570.41,543.759 1557.92,548.483C1523.22,561.608 1484.15,561.851 1449.49,549.478C1435.87,544.618 1423.19,537.849 1411.7,529.555L1418.14,524.629L1586.55,524.629ZM1305.54,531.07L1279.98,550.593L1279.98,524.629L1313.97,524.629L1305.54,531.07ZM1712.12,541.445L1690.27,524.629L1712.12,524.629L1712.12,541.445Z"/>
        </g>
    </g>
</svg>
